<svg width="35px" height="35px" viewBox="-48 0 463 463.9944" xmlns="http://www.w3.org/2000/svg">
<path d="m193.9375.242188c-71.496094-3.671876-138.632812 34.457031-172.097656 97.746093-33.46875 63.285157-27.1875 140.238281 16.097656 197.261719l9.699219 11.816406c2.804687 3.121094 5.75 6.113282 8.796875 9.03125l128 131.898438 129.058594-132.875c1.6875-1.65625 3.320312-3.367188 4.941406-5.085938l11.960937-14.039062c41.597657-54.222656 49.71875-127.03125 21.085938-189.085938-28.628907-62.054687-89.292969-103.128906-157.542969-106.667968zm0 0" fill="#0099ff"/>
<path d="m336.433594 183.996094c0 83.945312-68.050782 152-152 152-83.945313 0-152-68.054688-152-152 0-83.949219 68.054687-152 152-152 83.949218 0 152 68.050781 152 152zm0 0" fill="#ddd"/>
<path d="m304.433594 199.996094c0 22.089844-17.90625 40-40 40-22.089844 0-40-17.910156-40-40 0-22.09375 17.910156-40 40-40 22.09375 0 40 17.90625 40 40zm0 0" fill="#ddd"/>
<path d="m144.433594 199.996094c0 22.089844-17.90625 40-40 40-22.089844 0-40-17.910156-40-40 0-22.09375 17.910156-40 40-40 22.09375 0 40 17.90625 40 40zm0 0" fill="#ddd"/>
<path d="m264.433594 247.996094c-26.507813 0-48-21.492188-48-48 0-26.511719 21.492187-48 48-48 26.511718 0 48 21.488281 48 48-.023438 26.496094-21.5 47.972656-48 48zm0-80c-17.671875 0-32 14.324218-32 32 0 17.671875 14.328125 32 32 32 17.675781 0 32-14.328125 32-32 0-17.675782-14.324219-32-32-32zm0 0" fill="#dc4d41"/>
<path d="m104.433594 247.996094c-26.507813 0-48-21.492188-48-48 0-26.511719 21.492187-48 48-48 26.511718 0 48 21.488281 48 48-.023438 26.496094-21.5 47.972656-48 48zm0-80c-17.671875 0-32 14.324218-32 32 0 17.671875 14.328125 32 32 32 17.675781 0 32-14.328125 32-32 0-17.675782-14.324219-32-32-32zm0 0" fill="#dc4d41"/>
<path d="m264.433594 207.996094c-2.761719 0-5.328125-1.421875-6.789063-3.761719l-40-64c-.792969-1.273437-1.210937-2.742187-1.210937-4.238281v-32c0-4.421875 3.582031-8 8-8h28c11.046875 0 20 8.953125 20 20 0 11.042968-8.953125 20-20 20h-4c-4.417969 0-8-3.582032-8-8 0-4.421875 3.582031-8 8-8h4c2.210937 0 4-1.792969 4-4 0-2.210938-1.789063-4-4-4h-20v21.703125l38.785156 62.054687c1.542969 2.464844 1.625 5.574219.214844 8.117188-1.410156 2.546875-4.089844 4.125-7 4.125zm0 0" fill="#69b0bb"/>
<path d="m144.433594 143.996094c-3.046875.015625-5.835938-1.699219-7.199219-4.425782l-8-16c-1.972656-3.953124-.371094-8.761718 3.585937-10.734374 3.953126-1.976563 8.757813-.371094 10.734376 3.582031l8 16c1.238281 2.472656 1.105468 5.410156-.34375 7.769531-1.445313 2.355469-4.011719 3.792969-6.777344 3.808594zm0 0" fill="#5d9aa4"/>
<path d="m117.8125 119.996094h-1.378906c-6.625 0-12-5.375-12-12 0-6.628906 5.375-12 12-12h44l-1.230469 1.847656c-9.226563 13.839844-24.757813 22.152344-41.390625 22.152344zm0 0" fill="#dc4d41"/>
<path d="m231.433594 132.121094c-1.40625-2.546875-4.089844-4.125-7-4.125h-80c-2.667969.023437-5.148438 1.375-6.613282 3.605468 0 .066407-.128906.089844-.167968.152344l-40 64c-1.542969 2.464844-1.625 5.574219-.214844 8.117188 1.410156 2.546875 4.089844 4.125 6.996094 4.125h80c.699218-.003906 1.398437-.101563 2.074218-.28125.214844-.074219.425782-.160156.632813-.257813.433594-.136719.855469-.316406 1.261719-.527343.234375-.136719.433594-.328126.65625-.488282.34375-.238281.667968-.503906.96875-.800781.207031-.21875.398437-.449219.574218-.695313.222657-.238281.425782-.488281.617188-.75l40-64c1.523438-2.457031 1.605469-5.539062.214844-8.074218zm-112.558594 59.875 25.558594-40.90625 25.601562 40.90625zm65.601562-7.097656-25.601562-40.902344h51.160156zm0 0" fill="#69b0bb"/>
<path d="m232.433594 127.996094v-16h4.664062v-16h-12.664062c-4.417969 0-8 3.578125-8 8v24zm0 0" fill="#5d9aa4"/>
<path d="m252.433594 95.996094h-15.335938v16h15.335938c2.210937 0 4 1.789062 4 4 0 2.207031-1.789063 4-4 4h-4c-4.417969 0-8 3.578125-8 8 0 4.417968 3.582031 8 8 8h4c11.046875 0 20-8.957032 20-20 0-11.046875-8.953125-20-20-20zm0 0" fill="#dc4d41"/>
</svg>